<svg xmlns="http://www.w3.org/2000/svg" xmlns:xlink="http://www.w3.org/1999/xlink" aria-hidden="true" role="img" class="iconify iconify--logos" width="32" height="32" preserveAspectRatio="xMidYMid meet" viewBox="0 0 400 400">
    <circle cx="200" cy="200" r="150" fill="none" stroke="black" stroke-width="2" stroke-dasharray="4,4"></circle>
    <g>
        <path d="M 200,200 
                    L 200,200 275.6117927898612,200.54335058569765 350,200
                    A 150 150 0 0 1 275 329.9038105676658
                    L 275,329.9038105676658 239.06492998034958,263.3541553343981 200,200" fill="hsl(0, 70%, 70%)"
            stroke="black" stroke-width="2" stroke-linecap="round"></path>
    </g>
    <g>
        <path d="M 200,200 
                    L 200,200 238.84195401008682,266.3122079610459 275,329.9038105676658
                    A 150 150 0 0 1 125.00000000000003 329.9038105676658
                    L 125.00000000000003,329.9038105676658 161.98648237557248,265.35034964052755 200,200"
            fill="hsl(60, 70%, 70%)" stroke="black" stroke-width="2" stroke-linecap="round"></path>
    </g>
    <g>
        <path d="M 200,200 
                    L 200,200 162.24940866923413,262.90444993669445 125.00000000000003,329.9038105676658
                    A 150 150 0 0 1 50 200.00000000000003
                    L 50,200.00000000000003 124.09072650000945,200.88501806147488 200,200" fill="hsl(120, 70%, 70%)"
            stroke="black" stroke-width="2" stroke-linecap="round"></path>
    </g>
    <g>
        <path d="M 200,200 
                    L 200,200 125.48704349623546,199.8014481375349 50,200.00000000000003
                    A 150 150 0 0 1 124.99999999999993 70.09618943233426
                    L 124.99999999999993,70.09618943233426 160.3436422269631,134.94234065094432 200,200"
            fill="hsl(180, 70%, 70%)" stroke="black" stroke-width="2" stroke-linecap="round"></path>
    </g>
    <g>
        <path d="M 200,200 
                    L 200,200 161.16515774434626,135.71635748800924 124.99999999999993,70.09618943233426
                    A 150 150 0 0 1 275 70.0961894323342
                    L 275,70.0961894323342 239.6761712221925,133.19869277854386 200,200" fill="hsl(240, 70%, 70%)"
            stroke="black" stroke-width="2" stroke-linecap="round"></path>
    </g>
    <g>
        <path d="M 200,200 
                    L 200,200 239.45329675951263,135.9892684239779 275,70.0961894323342
                    A 150 150 0 0 1 350 199.99999999999997
                    L 350,199.99999999999997 276.5170512199805,199.62259892651699 200,200" fill="hsl(300, 70%, 70%)"
            stroke="black" stroke-width="2" stroke-linecap="round"></path>
    </g>
</svg>